# Blender 3.6.5
# www.blender.org
mtllib vacumm_cleaner.mtl
o Cube
v 1.857180 1.696170 -1.645129
v 1.000000 -1.000000 -1.000000
v 0.947955 1.851218 2.566156
v 1.000000 -1.000000 1.000000
v -0.061195 0.628519 -3.644494
v -1.000000 -1.000000 -1.000000
v -1.052045 1.851218 2.566156
v -1.000000 -1.000000 1.000000
v -0.182942 2.791470 9.425104
v -2.718940 3.902570 4.645413
v 9.987431 7.136366 -7.524128
v -0.827366 1.568388 -7.210968
v -1.516578 5.038451 4.931521
v -1.883822 4.968378 2.513976
v 0.736104 4.654307 -5.502293
v -0.719383 3.531475 -4.784719
v 0.160733 6.598840 2.242678
v -2.189647 6.598840 2.242678
v 1.229246 6.416630 -2.706383
v -1.025209 5.161937 -5.056017
v 0.305617 8.628461 4.583715
v -1.532210 9.078485 5.426467
v 1.091068 8.938678 1.629107
v -0.604344 7.525940 -1.016493
v -0.015302 10.339390 4.299028
v -1.853130 10.789414 5.141779
v 0.770149 10.649607 1.344420
v -0.925263 9.236869 -1.301181
v 5.110519 9.011200 -3.394099
v 9.990591 7.073933 -7.531724
v -0.179781 2.729037 9.417507
v 0.739265 4.591875 -5.509889
v -1.513417 4.976018 4.923924
v -1.665751 19.138487 2.834914
v -3.503578 19.588512 3.677665
v -0.880299 19.448704 -0.119695
v -2.575712 18.035965 -2.765295
v -8.038643 8.708107 3.539729
v -6.343231 10.120845 6.185329
v -9.689092 17.507204 2.075615
v -7.993680 18.919943 4.721215
v -5.963333 29.150002 -6.529210
v -4.267921 30.562740 -3.883609
v -13.076714 28.621239 -1.688300
v -11.381301 30.033978 0.957301
v 5.800762 39.163792 -32.326588
v 17.254238 48.707645 -14.454060
v -42.254173 35.591698 0.376509
v -30.800694 45.135551 18.249046
v 5.800762 39.163792 -32.326588
v 17.254238 48.707645 -14.454060
v -42.254173 35.591698 0.376509
v -30.800694 45.135551 18.249046
v -14.826558 87.175194 -48.101921
v -29.711691 100.219002 -51.752457
v -47.932747 71.377586 -50.148556
v -46.548565 87.228737 -57.623684
v -40.154800 75.624184 -53.545200
v -47.733643 62.556126 -53.279808
v -14.979517 97.739525 -43.118698
v -26.443810 68.818993 -42.445786
v -51.540806 84.808372 -41.832859
v -24.799240 65.464165 -37.118332
v 4.080557 44.807400 -34.237869
v 15.534033 54.351254 -16.365341
v -43.974377 41.235306 -1.534772
v -32.520897 50.779160 16.337765
vn 0.6463 -0.7385 0.1922
vn -0.0000 -0.4814 0.8765
vn -0.9770 0.1593 -0.1416
vn -0.0000 -1.0000 -0.0000
vn 0.9751 -0.1659 0.1469
vn 0.4786 -0.6488 -0.5916
vn -0.9278 0.3092 -0.2089
vn 0.4736 -0.8557 -0.2088
vn -0.4036 -0.8982 0.1743
vn -0.7759 -0.6309 0.0004
vn -0.0307 0.5978 -0.8011
vn -0.6835 0.6310 0.3670
vn -0.3806 0.5880 -0.7137
vn 0.2392 -0.1053 0.9652
vn 0.9259 -0.3125 0.2121
vn 0.8180 -0.5406 0.1965
vn -0.9726 -0.2016 -0.1155
vn -0.4863 0.6974 0.5264
vn -0.9757 -0.1984 -0.0927
vn -0.8081 0.5379 -0.2401
vn 0.0429 -0.7770 0.6280
vn 0.0562 0.8616 -0.5045
vn -0.2774 0.9100 -0.3082
vn 0.4514 0.2282 0.8626
vn 0.8252 0.0613 -0.5616
vn 0.9365 0.2210 0.2722
vn -0.0502 0.9914 0.1206
vn 0.9774 0.0239 0.2101
vn 0.9658 0.0790 -0.2471
vn -0.8594 0.0187 -0.5109
vn -0.1819 0.9700 -0.1614
vn 0.5348 0.2353 0.8115
vn -0.5348 -0.2353 -0.8115
vn -0.4921 -0.4101 -0.7679
vn -0.5615 0.1979 -0.8035
vn -0.8252 -0.0613 0.5616
vn 0.4921 0.4101 0.7679
vn -0.0000 1.0000 -0.0000
vn 0.1587 0.8251 -0.5423
vn 0.2378 0.8640 0.4438
vn -0.6435 0.7654 0.0037
vn -0.2795 0.2285 0.9326
vn -0.3518 -0.2042 0.9136
vn 0.5276 -0.2574 -0.8096
vn 0.1490 0.0088 -0.9888
vn -0.5302 0.3554 -0.7698
vn -0.6119 0.1656 0.7734
vn 0.1396 0.9712 0.1930
vn 0.2774 -0.9100 0.3082
vt 0.625000 0.750000
vt 0.625000 0.500000
vt 0.375000 0.750000
vt 0.625000 1.000000
vt 0.375000 1.000000
vt 0.375000 0.000000
vt 0.625000 0.000000
vt 0.625000 0.250000
vt 0.375000 0.250000
vt 0.125000 0.500000
vt 0.375000 0.500000
vt 0.125000 0.750000
vt 0.677032 0.575457
vt 0.625000 0.716633
vt 0.625000 0.250402
vt 0.625000 0.075826
vt 0.625000 0.915567
vt 0.823203 0.544916
vt 0.806066 0.704970
vt 0.875000 0.500000
vt 0.875000 0.750000
s 0
usemtl Material
f 3/1/1 1/2/1 11/2/1 9/1/1
f 4/3/2 3/1/2 7/4/2 8/5/2
f 8/6/3 7/7/3 5/8/3 6/9/3
f 6/10/4 2/11/4 4/3/4 8/12/4
f 2/11/5 1/2/5 3/1/5 4/3/5
f 6/9/6 5/8/6 1/2/6 2/11/6
f 12/8/7 10/7/7 14/7/7 16/8/7
f 1/2/8 5/8/8 12/8/8 11/2/8
f 7/4/9 3/1/9 9/1/9 10/4/9
f 5/8/10 7/7/10 10/7/10 12/8/10
f 15/2/11 16/8/11 20/8/11 19/2/11
f 10/4/12 9/1/12 13/1/12 14/4/12
f 11/2/13 12/8/13 16/8/13 15/2/13
f 11/2/14 15/2/14 32/2/14 30/2/14
f 17/1/15 19/2/15 23/13/15 21/14/15
f 13/1/16 15/2/16 19/2/16 17/1/16
f 16/8/17 14/7/17 18/7/17 20/8/17
f 14/4/18 13/1/18 17/1/18 18/4/18
f 24/15/19 22/16/19 26/16/19 28/15/19
f 20/8/20 18/7/20 22/16/20 24/15/20
f 18/4/21 17/1/21 21/14/21 22/17/21
f 19/2/22 20/8/22 24/15/22 23/13/22
f 27/13/23 28/15/23 38/15/23 39/13/23
f 22/17/24 21/14/24 25/14/24 26/17/24
f 23/13/25 24/15/25 28/15/25 27/13/25
f 21/14/26 23/13/26 27/13/26 25/14/26
f 31/1/27 30/2/27 32/2/27 33/1/27
f 15/2/28 13/1/28 33/1/28 32/2/28
f 13/1/29 9/1/29 31/1/29 33/1/29
f 9/1/30 11/2/30 30/2/30 31/1/30
f 36/13/31 37/18/31 35/19/31 34/14/31
f 25/14/26 27/13/26 36/13/26 34/14/26
f 28/15/19 26/16/19 35/16/19 37/15/19
f 26/17/24 25/14/24 34/14/24 35/17/24
f 39/13/25 38/15/25 40/15/25 41/13/25
f 28/15/32 37/15/32 40/15/32 38/15/32
f 36/13/33 27/13/33 39/13/33 41/13/33
f 36/13/34 41/13/34 45/13/34 43/13/34
f 43/13/35 45/13/35 49/13/35 47/13/35
f 41/13/25 40/15/25 44/15/25 45/13/25
f 37/18/36 36/13/36 43/13/36 42/18/36
f 40/15/37 37/15/37 42/15/37 44/15/37
f 48/15/38 46/15/38 50/15/38 52/15/38
f 45/13/39 44/15/39 48/15/39 49/13/39
f 44/15/40 42/15/40 46/15/40 48/15/40
f 42/18/41 43/13/41 47/13/41 46/18/41
f 51/13/34 53/13/34 67/13/34 65/13/34
f 46/18/38 47/13/38 51/13/38 50/18/38
f 47/13/38 49/13/38 53/13/38 51/13/38
f 49/13/38 48/15/38 52/15/38 53/13/38
f 54/6/42 55/7/42 57/8/42 56/9/42
f 56/9/43 57/8/43 61/2/43 60/11/43
f 60/11/44 61/2/44 59/1/44 58/3/44
f 58/3/45 59/1/45 55/4/45 54/5/45
f 56/10/46 60/11/46 58/3/46 54/12/46
f 61/2/47 57/20/47 55/21/47 59/1/47
f 57/8/48 56/9/48 62/9/48 63/8/48
f 64/18/49 65/13/49 67/13/49 66/18/49
f 53/13/25 52/15/25 66/15/25 67/13/25
f 52/15/37 50/15/37 64/15/37 66/15/37
f 50/18/36 51/13/36 65/13/36 64/18/36
l 11 29
